<?xml version="1.0"?>
<svg xmlns="http://www.w3.org/2000/svg" id="Capa_1" enable-background="new 0 0 551.13 551.13" height="512px" viewBox="0 0 551.13 551.13" width="512px"><g><path d="m258.342 378.902h34.448v34.446h-34.448z" data-original="#000000" class="active-path" data-old_color="#000000" fill="#FB5252"/><path d="m258.342 137.782h34.446v206.674h-34.446z" data-original="#000000" class="active-path" data-old_color="#000000" fill="#FB5252"/><path d="m68.891 275.565c0-102.134 74.738-186.382 172.228-202.94v30.712l68.891-51.668-68.89-51.669v37.235c-116.654 16.805-206.674 117.119-206.674 238.33 0 87.119 46.608 163.375 116.048 205.749l29.947-22.46c-66.186-34.49-111.549-103.631-111.55-183.289z" data-original="#000000" class="active-path" data-old_color="#000000" fill="#FB5252"/><path d="m400.637 69.816-29.947 22.46c66.186 34.49 111.549 103.631 111.549 183.289 0 102.162-74.7 186.655-172.228 203.175v-30.949l-68.891 51.668 68.891 51.671v-37.26c116.645-16.807 206.674-117.095 206.674-238.304 0-87.12-46.609-163.376-116.048-205.75z" data-original="#000000" class="active-path" data-old_color="#000000" fill="#FB5252"/></g> </svg>
